<?xml version="1.0" encoding="utf-8"?>
<!-- Generator: Adobe Illustrator 24.0.1, SVG Export Plug-In . SVG Version: 6.00 Build 0)  -->
<svg version="1.1" id="Layer_1" xmlns="http://www.w3.org/2000/svg" xmlns:xlink="http://www.w3.org/1999/xlink" x="0px" y="0px"
	 viewBox="0 0 525.44 169.15" style="enable-background:new 0 0 525.44 169.15;" xml:space="preserve">
<g>
	<g>
		<g>
			<path fill="white" d="M148.62,123.19l-6.21-10.63l-3.14-5.37l-3.45-5.91l-15.77-27l-5.3-9.08l-3.14,5.37l-2.16,3.71l5.3,9.07l17.52,29.99v0
				l2.79,4.78l2.68,4.58l0.29,0.49h-0.58h-11.08h-18.07L92.92,96.87l1.69-2.89l5.3-9.07l7.87-13.47l5.3-9.07l3.89-6.66
				c11.78,8.85,19.39,22.76,19.39,38.37c0,0.97-0.03,1.93-0.09,2.88l5.25,8.99l1.93,3.29c1.3-4.66,2.01-9.56,2.06-14.61
				c0-0.18,0-0.37,0-0.55c0-18.97-9.42-35.83-23.9-46.32c-1.78-1.29-3.64-2.48-5.57-3.57c-0.72-0.41-1.45-0.8-2.19-1.18
				c-0.02-0.01-0.04-0.02-0.05-0.03l-4.63,7.92l-1.4,2.39l-2.37-4.07h0l-3.52-6.02v0l-3.2-5.47L92.2,26.64l-5.3-9.07l-5.3,9.07
				l-6.48,11.09l-1.39,2.37l-1.81,3.1l-3.49,5.97l-0.03,0.05c0.02-0.01,0.03-0.01,0.05-0.02l5.28,9.04l5.3-9.07l1.81-3.1l2.83-4.85
				l2.73-4.67l0.5-0.85l0.5,0.85l2.73,4.67l2.83,4.85l9.52,16.29l-7.87,13.46v0l-5.3,9.07l-1.69,2.89L72.04,61.15v0l-5.3-9.07
				l-0.99-1.7l-4.64-7.94c-0.4,0.19-0.79,0.39-1.18,0.59c-0.27,0.14-0.54,0.27-0.8,0.42c-0.27,0.14-0.53,0.28-0.8,0.43
				c-0.14,0.08-0.29,0.16-0.43,0.24c-0.16,0.09-0.33,0.18-0.49,0.28c-0.29,0.17-0.59,0.34-0.88,0.51c-0.11,0.06-0.21,0.12-0.32,0.19
				c-0.25,0.15-0.49,0.3-0.74,0.45c-0.08,0.05-0.16,0.1-0.24,0.15c-0.34,0.21-0.67,0.43-1.01,0.65c-0.34,0.23-0.69,0.46-1.03,0.7
				C38.14,57.47,28.28,74.66,28.28,94.08v0.16c0.02,5.09,0.71,10.03,1.99,14.73l2.54-4.35l4.69-8.03c-0.05-0.83-0.07-1.67-0.07-2.51
				c0-16.05,8.04-30.3,20.39-39.1l3.6,6.17l-23.45,40.13l-3.45,5.91v0l-3.14,5.37l-6.21,10.63l-5.35,9.16h10.6h12.76
				c0.78,0.86,1.58,1.69,2.42,2.5c3.01,2.94,6.35,5.56,9.95,7.81c0.75,0.47,1.51,0.92,2.28,1.35c1.89,1.07,3.84,2.03,5.85,2.88
				c7.12,3.02,14.97,4.7,23.21,4.7c8.68,0,16.93-1.86,24.35-5.2c1.61-0.73,3.19-1.52,4.72-2.38c1.13-0.63,2.24-1.31,3.32-2.01
				c0.82-0.53,1.62-1.09,2.41-1.66c2.3-1.67,4.48-3.5,6.5-5.48H115.1l-0.01-0.01h-1.62c0,0-0.01,0.01-0.01,0.01
				c-2.18,1.36-4.47,2.56-6.87,3.58c-6.04,2.57-12.7,4-19.69,4c-6.56,0-12.82-1.25-18.54-3.53c-2.81-1.11-5.49-2.47-8.01-4.05
				c-0.05-0.03-0.11-0.07-0.16-0.1c-1.19-0.75-2.35-1.55-3.47-2.4h4.87h10.6h30.86h10.6h3.45h13.52h12.75h10.6L148.62,123.19z
				 M47.44,123.19H36.37h-0.59l0.29-0.49l2.67-4.58l2.79-4.78l25.2-43.12l15.58,26.66l-15.38,26.32H47.44z M77.53,123.19
				l10.08-17.25l10.08,17.25H77.53z"/>
		</g>
	</g>
	<path fill="white" d="M321.14,79.03L298.7,97.34l23.1,18.76c1.39,1.12,2.4,2.17,3.02,3.13c0.62,0.96,0.94,2.25,0.94,3.85
		c0,5.69-2.51,8.54-7.53,8.54c-2.03,0-3.74-0.6-5.14-1.79l-28.17-22.87l-26.63,23.36c-1.29,0.87-3,1.3-5.14,1.3
		c-4.79,0-7.18-2.71-7.18-8.13c0-1.51,0.29-2.71,0.89-3.59c0.59-0.88,1.55-1.87,2.87-2.99l23.68-19.32l-22.43-18.21
		c-1.39-1.11-2.4-2.15-3.02-3.11c-0.62-0.96-0.94-2.23-0.94-3.82c0-5.66,2.51-8.49,7.53-8.49c2.1,0,3.81,0.57,5.14,1.7l27.06,21.97
		l25.83-21.99c1.21-1.11,2.93-1.67,5.14-1.67c4.78,0,7.18,2.78,7.18,8.33c0,1.47-0.3,2.7-0.89,3.68
		C323.41,76.94,322.45,77.97,321.14,79.03z"/>
	<path fill="white" d="M346.17,72.44v50.68c0,5.66-2.47,8.49-7.4,8.49c-5,0-7.5-2.83-7.5-8.49V72.44c0-5.66,2.5-8.49,7.5-8.49
		C343.7,63.96,346.17,66.78,346.17,72.44z"/>
	<path fill="white" d="M435.89,77.62l-34.7,50.44c-1.66,2.37-3.79,3.55-6.42,3.55c-2.48,0-4.59-1.15-6.31-3.46L354.28,78.3
		c-1.32-1.75-1.98-3.71-1.98-5.86c0-2.71,0.64-4.8,1.93-6.28c1.29-1.47,3.11-2.21,5.47-2.21c2.43,0,4.44,1.2,6.04,3.59l29.47,44.13
		l29.61-44.39c1.66-2.22,3.59-3.33,5.8-3.33c4.77,0,7.16,2.69,7.16,8.08C437.77,74.09,437.14,75.95,435.89,77.62z"/>
	<path fill="white" d="M243.47,92.67c-0.02-0.39-0.03-0.77-0.08-1.15c-0.29-1.77-0.7-3.45-1.18-5.08c-1.27-4.32-3.19-8.18-5.78-11.54
		c-5.14-6.74-12.5-10.1-22.08-10.1h-6.46c-4.44,0-6.67,2.71-6.67,8.13s2.23,8.13,6.67,8.13h5.1c4.03,0,7.36,1.12,9.96,3.36
		c1.33,1.15,2.45,2.51,3.33,4.09h-42.33c-5.7,0-10.11,2.03-13.24,6.09c-3.11,4.07-4.68,9.23-4.68,15.5c0,6.26,1.56,11.43,4.68,15.49
		c3.13,4.06,7.54,6.09,13.24,6.09h34.18c8.21,0,14.5-2.85,18.86-8.56c4.38-5.71,6.57-13.06,6.57-22.04v-5.33
		C243.56,94.7,243.53,93.68,243.47,92.67z M216.05,115.44h-30.01c-1.61,0-2.85-0.59-3.76-1.78c-0.9-1.18-1.35-2.66-1.35-4.44
		c0-1.86,0.45-3.36,1.35-4.51c0.91-1.15,2.15-1.72,3.76-1.72h42.51C227.73,111.29,223.55,115.44,216.05,115.44z"/>
	<path fill="white" d="M505.52,92.67c-0.02-0.39-0.03-0.77-0.08-1.15c-0.29-1.77-0.7-3.45-1.18-5.08c-1.27-4.32-3.19-8.18-5.78-11.54
		c-5.14-6.74-12.5-10.1-22.08-10.1h-6.46c-4.44,0-6.67,2.71-6.67,8.13s2.23,8.13,6.67,8.13h5.1c4.03,0,7.36,1.12,9.96,3.36
		c1.33,1.15,2.45,2.51,3.33,4.09H446c-5.7,0-10.11,2.03-13.24,6.09c-3.11,4.07-4.68,9.23-4.68,15.5c0,6.26,1.56,11.43,4.68,15.49
		c3.13,4.06,7.54,6.09,13.24,6.09h34.18c8.21,0,14.5-2.85,18.86-8.56c4.38-5.71,6.57-13.06,6.57-22.04v-5.33
		C505.61,94.7,505.58,93.68,505.52,92.67z M478.11,115.44h-30.01c-1.61,0-2.85-0.59-3.76-1.78c-0.9-1.18-1.35-2.66-1.35-4.44
		c0-1.86,0.45-3.36,1.35-4.51c0.91-1.15,2.15-1.72,3.76-1.72h42.51C489.78,111.29,485.6,115.44,478.11,115.44z"/>
	<circle fill="white" cx="338.74" cy="51.02" r="9.12"/>
</g>
</svg>
